# xmcd
#
# Track frame offsets:
#        150
#        23025
#        51750
#        75300
#
# Disc length: 1306 seconds
#
# Revision: 2
# Processed by: cddbd v1.5.1PL2 Copyright (c) Steve Scherf et al.
# Submitted via: ExactAudioCopy v0.95b3
#
DISCID=20051804
DTITLE=TRF - BE FREE
DYEAR=1998
DGENRE=J-POP
TTITLE0=BE FREE(STRAIGHT RUN)
TTITLE1=It's MY TIME
TTITLE2=BE FREE(GET YOUR GROOVE BACK MIX)
TTITLE3=BE FREE(INSTRUMENTAL)
EXTD=
EXTT0=
EXTT1=
EXTT2=
EXTT3=
PLAYORDER=
